<svg id='Dating_Lipstick_24' width='24' height='24' viewBox='0 0 24 24' xmlns='http://www.w3.org/2000/svg' xmlns:xlink='http://www.w3.org/1999/xlink'><rect width='24' height='24' stroke='none' fill='#000000' opacity='0'/>


<g transform="matrix(0.8 0 0 0.8 12 12)" >
<g style="" >
<g transform="matrix(1 0 0 1 5.5 -8.11)" >
<path style="stroke: none; stroke-width: 1; stroke-dasharray: none; stroke-linecap: butt; stroke-dashoffset: 0; stroke-linejoin: miter; stroke-miterlimit: 4; fill: rgb(255,191,197); fill-rule: nonzero; opacity: 1;" transform=" translate(-18, -3.89)" d="M 18.361 7.123 C 18.3143 7.1717 18.2583 7.21045 18.1963 7.23693 C 18.1342 7.2634 18.0675 7.27705 18 7.27705 C 17.9326 7.27705 17.8658 7.2634 17.8038 7.23693 C 17.7417 7.21045 17.6857 7.1717 17.639 7.123 L 14.591 3.944 C 14.2916 3.64454 14.094 3.25848 14.0262 2.8405 C 13.9583 2.42251 14.0237 1.99378 14.213 1.615 L 14.213 1.615 C 14.356 1.32921 14.5648 1.08148 14.8223 0.89221 C 15.0797 0.702943 15.3785 0.57756 15.6939 0.526388 C 16.0093 0.475217 16.3324 0.499722 16.6365 0.597885 C 16.9406 0.696049 17.217 0.86506 17.443 1.091 L 18 1.648 L 18.557 1.091 C 18.783 0.86506 19.0594 0.696049 19.3635 0.597885 C 19.6676 0.499722 19.9907 0.475217 20.3061 0.526388 C 20.6215 0.57756 20.9203 0.702943 21.1778 0.89221 C 21.4352 1.08148 21.644 1.32921 21.787 1.615 L 21.787 1.615 C 21.9763 1.99378 22.0417 2.42251 21.9739 2.8405 C 21.906 3.25848 21.7084 3.64454 21.409 3.944 L 18.361 7.123 Z" stroke-linecap="round" />
</g>
<g transform="matrix(1 0 0 1 6.2 -8.08)" >
<path style="stroke: none; stroke-width: 1; stroke-dasharray: none; stroke-linecap: butt; stroke-dashoffset: 0; stroke-linejoin: miter; stroke-miterlimit: 4; fill: rgb(255,128,140); fill-rule: nonzero; opacity: 1;" transform=" translate(-18.7, -3.92)" d="M 21.787 1.615 C 21.6554 1.35274 21.4675 1.1228 21.2368 0.941626 C 21.006 0.760453 20.738 0.632527 20.452 0.567001 C 20.464 0.697001 20.491 0.823001 20.491 0.956001 C 20.491 2.01687 20.0696 3.03428 19.3194 3.78443 C 18.5693 4.53457 17.5519 4.956 16.491 4.956 C 16.1214 4.952 15.7542 4.89647 15.4 4.791 L 17.636 7.123 C 17.6827 7.1717 17.7387 7.21046 17.8007 7.23693 C 17.8628 7.26341 17.9295 7.27705 17.997 7.27705 C 18.0644 7.27705 18.1312 7.26341 18.1932 7.23693 C 18.2553 7.21046 18.3113 7.1717 18.358 7.123 L 21.406 3.944 C 21.7059 3.64489 21.9041 3.259 21.9724 2.841 C 22.0408 2.423 21.9759 1.99408 21.787 1.615 L 21.787 1.615 Z" stroke-linecap="round" />
</g>
<g transform="matrix(1 0 0 1 -7.53 7.03)" >
<path style="stroke: none; stroke-width: 1; stroke-dasharray: none; stroke-linecap: butt; stroke-dashoffset: 0; stroke-linejoin: miter; stroke-miterlimit: 4; fill: rgb(128,128,128); fill-rule: nonzero; opacity: 1;" transform=" translate(-4.97, -19.03)" d="M 8.98344 17.5001 L 4.81696 14.736 C 4.35674 14.4307 3.73615 14.5562 3.43083 15.0165 L 0.666711 19.183 C 0.361394 19.6432 0.486966 20.2638 0.947184 20.5691 L 5.11367 23.3332 C 5.57389 23.6385 6.19448 23.5129 6.49979 23.0527 L 9.26392 18.8862 C 9.56923 18.426 9.44366 17.8054 8.98344 17.5001 Z" stroke-linecap="round" />
</g>
<g transform="matrix(1 0 0 1 -8.85 6.21)" >
<path style="stroke: none; stroke-width: 1; stroke-dasharray: none; stroke-linecap: butt; stroke-dashoffset: 0; stroke-linejoin: miter; stroke-miterlimit: 4; fill: rgb(178,178,178); fill-rule: nonzero; opacity: 1;" transform=" translate(-3.65, -18.21)" d="M 4.81699 14.736 C 4.59606 14.5894 4.32593 14.5365 4.06602 14.589 C 3.8061 14.6415 3.57768 14.7951 3.43099 15.016 L 0.666993 19.183 C 0.520368 19.4039 0.467497 19.6741 0.520004 19.934 C 0.572512 20.1939 0.7261 20.4223 0.946993 20.569 L 2.88999 21.858 L 6.79999 16.052 L 4.81699 14.736 Z" stroke-linecap="round" />
</g>
<g transform="matrix(1 0 0 1 -4.41 2.23)" >
<path style="stroke: none; stroke-width: 1; stroke-dasharray: none; stroke-linecap: butt; stroke-dashoffset: 0; stroke-linejoin: miter; stroke-miterlimit: 4; fill: rgb(128,128,128); fill-rule: nonzero; opacity: 1;" transform=" translate(-8.09, -14.23)" d="M 8.4146 11.1223 L 10.9145 12.7808 C 11.1355 12.9274 11.2892 13.1558 11.3418 13.4158 C 11.3944 13.6757 11.3416 13.9459 11.195 14.1669 L 8.98366 17.5001 L 4.81718 14.736 L 7.02847 11.4028 C 7.17509 11.1818 7.4035 11.0281 7.66345 10.9755 C 7.9234 10.9229 8.19359 10.9757 8.4146 11.1223 Z" stroke-linecap="round" />
</g>
<g transform="matrix(1 0 0 1 -5.29 1.5)" >
<path style="stroke: none; stroke-width: 1; stroke-dasharray: none; stroke-linecap: butt; stroke-dashoffset: 0; stroke-linejoin: miter; stroke-miterlimit: 4; fill: rgb(178,178,178); fill-rule: nonzero; opacity: 1;" transform=" translate(-7.21, -13.5)" d="M 8.414 11.122 C 8.19294 10.9755 7.92273 10.9228 7.66281 10.9755 C 7.40288 11.0282 7.17454 11.1819 7.028 11.403 L 4.817 14.736 L 6.8 16.052 L 9.593 11.9 L 8.414 11.122 Z" stroke-linecap="round" />
</g>
<g transform="matrix(1 0 0 1 -1.41 -1.97)" >
<path style="stroke: none; stroke-width: 1; stroke-dasharray: none; stroke-linecap: butt; stroke-dashoffset: 0; stroke-linejoin: miter; stroke-miterlimit: 4; fill: rgb(255,128,140); fill-rule: nonzero; opacity: 1;" transform=" translate(-11.09, -10.03)" d="M 13.679 8.614 C 13.7228 8.54793 13.7502 8.4724 13.7591 8.39364 C 13.7679 8.31488 13.7579 8.23514 13.7299 8.16101 C 13.7018 8.08688 13.6566 8.02047 13.5978 7.96726 C 13.5391 7.91406 13.4685 7.87558 13.392 7.855 L 11.357 7.305 C 11.2557 7.27762 11.1484 7.28278 11.0503 7.31975 C 10.9521 7.35672 10.868 7.42363 10.81 7.511 L 8.41 11.122 L 10.91 12.781 L 13.679 8.614 Z" stroke-linecap="round" />
</g>
<g transform="matrix(1 0 0 1 -2.05 -2.4)" >
<path style="stroke: none; stroke-width: 1; stroke-dasharray: none; stroke-linecap: butt; stroke-dashoffset: 0; stroke-linejoin: miter; stroke-miterlimit: 4; fill: rgb(255,191,197); fill-rule: nonzero; opacity: 1;" transform=" translate(-10.45, -9.6)" d="M 11.357 7.305 C 11.2557 7.27762 11.1484 7.28278 11.0503 7.31975 C 10.9521 7.35672 10.868 7.42363 10.81 7.511 L 8.41 11.122 L 9.589 11.904 L 12.486 7.61 L 11.357 7.305 Z" stroke-linecap="round" />
</g>
<g transform="matrix(1 0 0 1 -7.53 7.03)" >
<path style="stroke: rgb(25,25,25); stroke-width: 1; stroke-dasharray: none; stroke-linecap: round; stroke-dashoffset: 0; stroke-linejoin: round; stroke-miterlimit: 4; fill: none; fill-rule: nonzero; opacity: 1;" transform=" translate(-4.97, -19.03)" d="M 8.98344 17.5001 L 4.81696 14.736 C 4.35674 14.4307 3.73615 14.5562 3.43083 15.0165 L 0.666711 19.183 C 0.361394 19.6432 0.486966 20.2638 0.947184 20.5691 L 5.11367 23.3332 C 5.57389 23.6385 6.19448 23.5129 6.49979 23.0527 L 9.26392 18.8862 C 9.56923 18.426 9.44366 17.8054 8.98344 17.5001 Z" stroke-linecap="round" />
</g>
<g transform="matrix(1 0 0 1 -4.41 2.23)" >
<path style="stroke: rgb(25,25,25); stroke-width: 1; stroke-dasharray: none; stroke-linecap: round; stroke-dashoffset: 0; stroke-linejoin: round; stroke-miterlimit: 4; fill: none; fill-rule: nonzero; opacity: 1;" transform=" translate(-8.09, -14.23)" d="M 8.4146 11.1223 L 10.9145 12.7808 C 11.1355 12.9274 11.2892 13.1558 11.3418 13.4158 C 11.3944 13.6757 11.3416 13.9459 11.195 14.1669 L 8.98366 17.5001 L 4.81718 14.736 L 7.02847 11.4028 C 7.17509 11.1818 7.4035 11.0281 7.66345 10.9755 C 7.9234 10.9229 8.19359 10.9757 8.4146 11.1223 Z" stroke-linecap="round" />
</g>
<g transform="matrix(1 0 0 1 -1.41 -1.97)" >
<path style="stroke: rgb(25,25,25); stroke-width: 1; stroke-dasharray: none; stroke-linecap: round; stroke-dashoffset: 0; stroke-linejoin: round; stroke-miterlimit: 4; fill: none; fill-rule: nonzero; opacity: 1;" transform=" translate(-11.09, -10.03)" d="M 13.679 8.614 C 13.7228 8.54793 13.7502 8.4724 13.7591 8.39364 C 13.7679 8.31488 13.7579 8.23514 13.7299 8.16101 C 13.7018 8.08688 13.6566 8.02047 13.5978 7.96726 C 13.5391 7.91406 13.4685 7.87558 13.392 7.855 L 11.357 7.305 C 11.2557 7.27762 11.1484 7.28278 11.0503 7.31975 C 10.9521 7.35672 10.868 7.42363 10.81 7.511 L 8.41 11.122 L 10.91 12.781 L 13.679 8.614 Z" stroke-linecap="round" />
</g>
<g transform="matrix(1 0 0 1 7.25 2.77)" >
<path style="stroke: rgb(25,25,25); stroke-width: 1; stroke-dasharray: none; stroke-linecap: round; stroke-dashoffset: 0; stroke-linejoin: round; stroke-miterlimit: 4; fill: rgb(255,239,94); fill-rule: nonzero; opacity: 1;" transform=" translate(-19.75, -14.77)" d="M 22.65 15.84 L 20.95 17.61 L 16.86 13.7 L 18.56 11.93 L 22.65 15.84 Z" stroke-linecap="round" />
</g>
<g transform="matrix(1 0 0 1 5.37 4.75)" >
<path style="stroke: rgb(25,25,25); stroke-width: 1; stroke-dasharray: none; stroke-linecap: round; stroke-dashoffset: 0; stroke-linejoin: round; stroke-miterlimit: 4; fill: rgb(128,128,128); fill-rule: nonzero; opacity: 1;" transform=" translate(-17.87, -16.75)" d="M 20.95 17.61 L 19.15 19.5 C 18.9666 19.6903 18.7154 19.8003 18.4512 19.8059 C 18.187 19.8115 17.9313 19.7123 17.74 19.53 L 15.09 17 C 14.8997 16.8166 14.7897 16.5654 14.7841 16.3012 C 14.7785 16.037 14.8777 15.7813 15.06 15.59 L 16.86 13.7 L 20.95 17.61 Z" stroke-linecap="round" />
</g>
<g transform="matrix(1 0 0 1 8.53 1.42)" >
<path style="stroke: rgb(25,25,25); stroke-width: 1; stroke-dasharray: none; stroke-linecap: round; stroke-dashoffset: 0; stroke-linejoin: round; stroke-miterlimit: 4; fill: rgb(128,128,128); fill-rule: nonzero; opacity: 1;" transform=" translate(-21.03, -13.42)" d="M 22.95 15.53 L 22.65 15.84 L 18.56 11.93 L 18.85 11.62 C 19.0311 11.4294 19.248 11.2763 19.4883 11.1696 C 19.7286 11.0629 19.9876 11.0047 20.2505 10.9982 C 20.5133 10.9917 20.7749 11.0371 21.0202 11.1317 C 21.2655 11.2264 21.4897 11.3686 21.68 11.55 L 22.88 12.7 C 23.0706 12.8811 23.2237 13.098 23.3304 13.3383 C 23.4371 13.5786 23.4953 13.8376 23.5018 14.1005 C 23.5083 14.3633 23.4629 14.6249 23.3682 14.8702 C 23.2736 15.1155 23.1314 15.3397 22.95 15.53 L 22.95 15.53 Z" stroke-linecap="round" />
</g>
<g transform="matrix(1 0 0 1 5.5 -8.11)" >
<path style="stroke: rgb(25,25,25); stroke-width: 1; stroke-dasharray: none; stroke-linecap: round; stroke-dashoffset: 0; stroke-linejoin: round; stroke-miterlimit: 4; fill: none; fill-rule: nonzero; opacity: 1;" transform=" translate(-18, -3.89)" d="M 18.361 7.123 C 18.3143 7.1717 18.2583 7.21045 18.1963 7.23693 C 18.1342 7.2634 18.0675 7.27705 18 7.27705 C 17.9326 7.27705 17.8658 7.2634 17.8038 7.23693 C 17.7417 7.21045 17.6857 7.1717 17.639 7.123 L 14.591 3.944 C 14.2916 3.64454 14.094 3.25848 14.0262 2.8405 C 13.9583 2.42251 14.0237 1.99378 14.213 1.615 L 14.213 1.615 C 14.356 1.32921 14.5648 1.08148 14.8223 0.89221 C 15.0797 0.702943 15.3785 0.57756 15.6939 0.526388 C 16.0093 0.475217 16.3324 0.499722 16.6365 0.597885 C 16.9406 0.696049 17.217 0.86506 17.443 1.091 L 18 1.648 L 18.557 1.091 C 18.783 0.86506 19.0594 0.696049 19.3635 0.597885 C 19.6676 0.499722 19.9907 0.475217 20.3061 0.526388 C 20.6215 0.57756 20.9203 0.702943 21.1778 0.89221 C 21.4352 1.08148 21.644 1.32921 21.787 1.615 L 21.787 1.615 C 21.9763 1.99378 22.0417 2.42251 21.9739 2.8405 C 21.906 3.25848 21.7084 3.64454 21.409 3.944 L 18.361 7.123 Z" stroke-linecap="round" />
</g>
<g transform="matrix(1 0 0 1 -9.14 -5.11)" >
<path style="stroke: rgb(25,25,25); stroke-width: 1; stroke-dasharray: none; stroke-linecap: round; stroke-dashoffset: 0; stroke-linejoin: round; stroke-miterlimit: 4; fill: rgb(255,128,140); fill-rule: nonzero; opacity: 1;" transform=" translate(-3.36, -6.89)" d="M 3.71801 9.123 C 3.67134 9.1717 3.6153 9.21046 3.55326 9.23693 C 3.49122 9.26341 3.42446 9.27705 3.35701 9.27705 C 3.28955 9.27705 3.2228 9.26341 3.16076 9.23693 C 3.09872 9.21046 3.04268 9.1717 2.99601 9.123 L 0.922007 6.96 C 0.708869 6.74641 0.568157 6.4713 0.519715 6.17348 C 0.471273 5.87565 0.517546 5.57013 0.652007 5.3 L 0.652007 5.3 C 0.753778 5.09549 0.902713 4.9181 1.08653 4.78246 C 1.27034 4.64683 1.48377 4.55684 1.7092 4.51992 C 1.93464 4.483 2.16562 4.5002 2.3831 4.57011 C 2.60057 4.64002 2.79831 4.76063 2.96001 4.922 L 3.36001 5.322 L 3.76001 4.922 C 3.92163 4.76166 4.11896 4.64193 4.33581 4.57263 C 4.55266 4.50332 4.78286 4.48642 5.00751 4.52331 C 5.23216 4.5602 5.44486 4.64983 5.62817 4.78484 C 5.81147 4.91985 5.96015 5.0964 6.06201 5.3 C 6.19717 5.57048 6.24382 5.87661 6.19536 6.17507 C 6.14691 6.47353 6.0058 6.74918 5.79201 6.963 L 3.71801 9.123 Z" stroke-linecap="round" />
</g>
<g transform="matrix(1 0 0 1 -3 -9.5)" >
<path style="stroke: rgb(25,25,25); stroke-width: 1; stroke-dasharray: none; stroke-linecap: round; stroke-dashoffset: 0; stroke-linejoin: round; stroke-miterlimit: 4; fill: none; fill-rule: nonzero; opacity: 1;" transform=" translate(-9.5, -2.5)" d="M 8.5 2.5 L 10.5 2.5" stroke-linecap="round" />
</g>
<g transform="matrix(1 0 0 1 -3 -9.5)" >
<path style="stroke: rgb(25,25,25); stroke-width: 1; stroke-dasharray: none; stroke-linecap: round; stroke-dashoffset: 0; stroke-linejoin: round; stroke-miterlimit: 4; fill: none; fill-rule: nonzero; opacity: 1;" transform=" translate(-9.5, -2.5)" d="M 9.5 1.5 L 9.5 3.5" stroke-linecap="round" />
</g>
<g transform="matrix(1 0 0 1 1 10.5)" >
<path style="stroke: rgb(25,25,25); stroke-width: 1; stroke-dasharray: none; stroke-linecap: round; stroke-dashoffset: 0; stroke-linejoin: round; stroke-miterlimit: 4; fill: none; fill-rule: nonzero; opacity: 1;" transform=" translate(-13.5, -22.5)" d="M 12.5 22.5 L 14.5 22.5" stroke-linecap="round" />
</g>
<g transform="matrix(1 0 0 1 1 10.5)" >
<path style="stroke: rgb(25,25,25); stroke-width: 1; stroke-dasharray: none; stroke-linecap: round; stroke-dashoffset: 0; stroke-linejoin: round; stroke-miterlimit: 4; fill: none; fill-rule: nonzero; opacity: 1;" transform=" translate(-13.5, -22.5)" d="M 13.5 21.5 L 13.5 23.5" stroke-linecap="round" />
</g>
</g>
</g>
</svg>